<svg width="351" height="328" viewBox="0 0 351 328" fill="none" xmlns="http://www.w3.org/2000/svg">
<path d="M51.2435 143.503C49.9885 138.821 49.9883 133.89 51.243 129.208C52.4976 124.525 54.9629 120.255 58.3909 116.828L129.823 45.3958C133.251 41.9677 137.52 39.5025 142.203 38.2479C146.885 36.9932 151.816 36.9934 156.498 38.2484L223.341 56.1588C224.036 47.0016 227.224 38.2092 232.56 30.7339L152.053 9.16436C146.274 7.61616 140.19 7.61619 134.412 9.16446C128.633 10.7127 123.364 13.7547 119.134 17.9846L30.9814 106.137C26.7514 110.367 23.7095 115.636 22.1612 121.415C20.613 127.193 20.6129 133.278 22.1611 139.056L44.5604 222.651C51.8828 217.059 60.6006 213.586 69.7623 212.612L51.2435 143.503Z" fill="#18CDCA"/>
<path d="M280.619 110.081L299.756 181.499C301.012 186.183 301.01 191.113 299.756 195.794C298.501 200.478 296.035 204.747 292.607 208.175L221.175 279.608C217.747 283.036 213.478 285.5 208.794 286.756C204.113 288.01 199.181 288.01 194.5 286.756L125.391 268.237C124.417 277.399 120.945 286.117 115.352 293.439L198.947 315.838C204.725 317.387 210.809 317.387 216.587 315.838C222.367 314.289 227.635 311.249 231.866 307.018L320.018 218.866C324.249 214.635 327.29 209.367 328.838 203.587C330.387 197.809 330.387 191.724 328.838 185.946L305.594 99.2224C298.427 105.073 289.784 108.83 280.619 110.081Z" fill="#18CDCA"/>
<path d="M46.5703 234.18C40.9089 239.84 37.0534 247.055 35.4914 254.906C33.9294 262.759 34.731 270.899 37.7949 278.296C40.8587 285.691 46.0473 292.014 52.7042 296.463C59.3613 300.91 67.1877 303.285 75.1942 303.285C83.2005 303.285 91.0271 300.91 97.684 296.463C104.341 292.014 109.53 285.691 112.593 278.296C115.657 270.899 116.459 262.759 114.897 254.906C113.335 247.055 109.48 239.84 103.818 234.18C96.2206 226.6 85.9265 222.342 75.1942 222.342C64.4619 222.342 54.1677 226.6 46.5703 234.18Z" fill="#4F80E1"/>
<path d="M245.083 31.4865C239.422 37.1478 235.565 44.3607 234.005 52.2133C232.442 60.0657 233.244 68.2051 236.308 75.602C239.372 82.9988 244.56 89.3212 251.216 93.7692C257.874 98.2174 265.7 100.592 273.706 100.592C281.713 100.592 289.539 98.2174 296.197 93.7692C302.854 89.3212 308.042 82.9988 311.106 75.602C314.17 68.2051 314.971 60.0657 313.409 52.2133C311.848 44.3607 307.991 37.1478 302.331 31.4865C294.734 23.9062 284.439 19.649 273.706 19.649C262.975 19.649 252.679 23.9062 245.083 31.4865Z" fill="#4F80E1"/>
<path d="M199.26 269.806C197.634 269.806 196.017 269.593 194.446 269.172L131.186 252.221C129.076 240.957 123.611 230.593 115.508 222.49C107.405 214.387 97.041 208.921 85.7768 206.812L68.8269 143.557C67.9866 140.402 67.989 137.081 68.8341 133.927C69.6793 130.773 71.3374 127.897 73.6427 125.584L138.573 60.6527C140.882 58.3429 143.759 56.6819 146.914 55.8364C150.07 54.9911 153.392 54.9913 156.547 55.8369L218.034 72.3124C220.473 83.5069 226.235 93.7036 234.568 101.567C242.9 109.431 253.414 114.594 264.73 116.382L282.162 181.456C283.002 184.612 283 187.933 282.154 191.086C281.309 194.24 279.651 197.117 277.345 199.43L212.415 264.36C210.692 266.091 208.64 267.466 206.382 268.4C204.124 269.335 201.704 269.813 199.26 269.806Z" fill="#4F80E1"/>
<g clip-path="url(#clip0_2_2)">
<path d="M225.769 216H124.231C123.05 216 122.093 214.978 122.093 213.717V113.967C122.093 113.034 122.626 112.195 123.437 111.848L174.206 90.1626C174.865 89.8825 175.611 89.9675 176.198 90.3915C176.786 90.816 177.138 91.5242 177.138 92.282V135.706L224.975 115.272C225.634 114.992 226.38 115.077 226.968 115.501C227.556 115.926 227.907 116.634 227.907 117.392V213.717C227.906 214.978 226.949 216 225.769 216ZM177.137 211.435H223.631V120.763L177.137 140.623V211.435V211.435ZM126.369 211.435H172.862V95.6533L126.369 115.513V211.435ZM214.724 205.174C213.543 205.174 212.586 204.152 212.586 202.891V182.563H202.522V202.891C202.522 204.152 201.565 205.174 200.384 205.174C199.204 205.174 198.246 204.152 198.246 202.891V182.563H188.182V202.891C188.182 204.152 187.225 205.174 186.044 205.174C184.864 205.174 183.907 204.152 183.907 202.891V149.632C183.907 148.372 184.864 147.35 186.044 147.35C187.225 147.35 188.182 148.372 188.182 149.632V158.263H198.246V142.405C198.246 141.144 199.204 140.122 200.384 140.122C201.565 140.122 202.522 141.144 202.522 142.405V158.263H212.586V136.936C212.586 135.675 213.543 134.653 214.724 134.653C215.904 134.653 216.862 135.675 216.862 136.936V202.891C216.862 204.152 215.904 205.174 214.724 205.174ZM202.522 177.998H212.586V162.828H202.522V177.998ZM188.182 177.998H198.246V162.828H188.182V177.998ZM163.955 205.174C162.775 205.174 161.817 204.152 161.817 202.891V182.445H151.753V202.891C151.753 204.152 150.796 205.174 149.615 205.174C148.435 205.174 147.478 204.152 147.478 202.891V182.445H137.413V202.891C137.413 204.152 136.456 205.174 135.276 205.174C134.095 205.174 133.138 204.152 133.138 202.891V125.19C133.138 123.929 134.095 122.907 135.276 122.907C136.456 122.907 137.413 123.929 137.413 125.19V138.409H147.478V117.962C147.478 116.702 148.435 115.68 149.615 115.68C150.796 115.68 151.753 116.702 151.753 117.962V138.409H161.817V112.493C161.817 111.232 162.775 110.21 163.955 110.21C165.136 110.21 166.093 111.232 166.093 112.493V202.891C166.093 204.152 165.136 205.174 163.955 205.174ZM151.753 177.88H161.817V162.709H151.753V177.88ZM137.413 177.88H147.478V162.709H137.413V177.88ZM151.753 158.144H161.817V142.974H151.753V158.144ZM137.413 158.144H147.478V142.974H137.413V158.144Z" fill="white"/>
</g>
<defs>
<clipPath id="clip0_2_2">
<rect width="118" height="126" fill="white" transform="translate(116 90)"/>
</clipPath>
</defs>
</svg>
